<?xml version="1.0" encoding="utf-8"?>
<!-- Generator: Adobe Illustrator 24.3.0, SVG Export Plug-In . SVG Version: 6.00 Build 0)  -->
<svg version="1.1" id="Camada_1" xmlns="http://www.w3.org/2000/svg" xmlns:xlink="http://www.w3.org/1999/xlink" x="0px" y="0px"
	 viewBox="0 0 841.89 841.89" style="enable-background:new 0 0 841.89 841.89;" xml:space="preserve">
<style type="text/css">
	.st0{fill:none;}
	.st1{fill-rule:evenodd;clip-rule:evenodd;fill:#D4D48E;}
	.st2{fill-rule:evenodd;clip-rule:evenodd;fill:#FFD0A1;}
	.st3{fill-rule:evenodd;clip-rule:evenodd;fill:#FF7F00;}
	.st4{fill-rule:evenodd;clip-rule:evenodd;fill:#C26100;}
	.st5{fill-rule:evenodd;clip-rule:evenodd;fill:#949402;}
	.st6{fill-rule:evenodd;clip-rule:evenodd;fill:#DEB083;}
	.st7{fill-rule:evenodd;clip-rule:evenodd;fill:#696904;}
	.st8{fill-rule:evenodd;clip-rule:evenodd;fill:#FAFACB;}
	.st9{fill-rule:evenodd;clip-rule:evenodd;fill:#F2C394;}
	.st10{fill-rule:evenodd;clip-rule:evenodd;fill:#BD8B59;}
	.st11{fill-rule:evenodd;clip-rule:evenodd;fill:#8F663E;}
	.st12{fill-rule:evenodd;clip-rule:evenodd;fill:#755432;}
	.st13{fill-rule:evenodd;clip-rule:evenodd;fill:#A15102;}
	.st14{fill-rule:evenodd;clip-rule:evenodd;fill:#5E2F00;}
	.st15{fill-rule:evenodd;clip-rule:evenodd;fill:#FFFFFF;}
	.st16{fill-rule:evenodd;clip-rule:evenodd;fill:#4A4A02;}
	.st17{fill-rule:evenodd;clip-rule:evenodd;fill:#E08A7B;}
	.st18{fill-rule:evenodd;clip-rule:evenodd;fill:#693500;}
	.st19{fill-rule:evenodd;clip-rule:evenodd;fill:#E8B787;}
	.st20{fill:none;stroke:#D4AA7F;stroke-width:0.9551;stroke-linecap:round;stroke-linejoin:round;stroke-miterlimit:22.9256;}
	.st21{fill-rule:evenodd;clip-rule:evenodd;fill:#F1CF00;}
</style>
<g>
	<polygon class="st0" points="0,0 841.89,0 841.89,841.89 0,841.89 0,0 	"/>
	<path class="st1" d="M349.08,763c113.41,0,205.34,10.77,205.34,24.05s-91.94,24.05-205.34,24.05
		c-113.41,0-205.34-10.77-205.34-24.05S235.67,763,349.08,763L349.08,763z"/>
	<path class="st2" d="M367.96,434.01c52.23-47.7,93.47-75.96,124.08-90.12c-1.63-2.75-3.34-7.19-0.75-11.14
		c4.12-6.31,14.46,5.44,14.46,5.44l-0.02,0.01c12.17-4.4,22.21-6.14,30.19-5.72c3.93-3.89,14.99-14.26,23.03-16.23
		c9.94-2.43,11.16,6.06,7.76,10.43c-2.41,3.1-10.45,8.16-14.91,10.83c0.47-0.17,0.76-0.26,0.76-0.26s6.81-2.5,9.6,0.81
		c4.85,5.74,1.34,10.76-3.43,13.45c0.02,0.11,0.02,0.23,0.04,0.34c1.22-0.13,7.17-0.59,9,2.85c3.45,6.5-0.78,10.63-5.87,12.32
		c1.42,0.23,2.88,0.8,3.58,2.1c4.43,8.34-7.72,11.57-11.69,9.43c-14.55,34.89-59.27,82.06-132.53,113.81L367.96,434.01
		L367.96,434.01z"/>
	<path class="st2" d="M284.85,468.56c0,0-65.52-5.65-112.11,5.89c-0.95-3.86-3.17-8.63-8.42-10.06c-7.59-2.08-8.9,10.97-9.13,15.71
		c-1.82,0.76-3.59,1.55-5.28,2.39c-6.41,3.2-11.58,6.76-15.69,10.55c-6.89-0.71-16.64-1.12-22.31,1.23
		c-9.46,3.91-5.43,11.48-0.11,13c2.49,0.71,7.45,0.67,12.03,0.42c-0.95,2.4-1.6,4.83-1.96,7.25c-5.51,0.44-11.3,1.43-15.01,3.49
		c-8.94,4.98-4.06,12.03,1.4,12.92c3.1,0.51,9.71-0.52,14.83-1.5c0.35,1.13,0.75,2.24,1.21,3.34c-4.23,1.71-8.72,3.76-10.66,5.45
		c-4.17,3.63-4.62,12.19,5.6,11.73c3.92-0.18,8.86-2.07,13.47-4.35c1.21,1.28,2.5,2.51,3.86,3.66c-1.76,1.08-3.26,2.13-4.1,3.03
		c-3.36,3.56-3.01,11.15,5.96,9.85c3.43-0.5,7.6-2.59,11.46-4.99c30.48,10.12,112.73-17.56,112.73-17.56L284.85,468.56
		L284.85,468.56z"/>
	<path class="st3" d="M284.85,468.56c0,0-34.57-2.98-71.35-0.19l13.31,82c20.16-5.1,35.8-10.36,35.8-10.36L284.85,468.56
		L284.85,468.56z"/>
	<path class="st4" d="M229.16,467.5c-5.11,0.19-10.35,0.47-15.65,0.87l13.31,82c4-1.01,7.82-2.03,11.37-3.01L229.16,467.5
		L229.16,467.5z"/>
	<path class="st5" d="M456.17,620.64l0.01,0.02h0c0.39,2.95,0.59,5.94,0.59,8.97c0,4.14-0.38,8.21-1.1,12.19
		c22.59,35.01,32.51,143.64-1.75,150.78c-15.45,3.22-35.41-1.93-44.43-28.33c-8.29-24.28-31.31-48.12-34.95-51.78
		c-8.33,1.62-17.04,2.49-26,2.49c-9.69,0-19.37-1.04-28.74-2.98l0.01,0.01c0,0-26.42,25.87-35.44,52.26
		c-9.01,26.4-28.97,31.55-44.43,28.33c-34.65-7.22-24.11-118.23-0.99-151.94l0.01,0.01c0.01-3.63,0.44-7.31,1.35-11.03
		c11.79-48.38,4.02-189.35,109.33-197.64C420.41,426.43,449.5,570.45,456.17,620.64L456.17,620.64z"/>
	<path class="st3" d="M460.91,636.23l0.01,0.02h0c0.39,2.95,0.6,5.94,0.6,8.97c0,0.63-0.01,1.26-0.03,1.88
		c-46.17,40.43-214.44,27.59-224.43-5.27c10.18-51.66,7.75-203.47,112.6-209.84c6.46-0.39,12.55,0.24,18.32,2.04l-0.01-0.02
		c23.47-21.44,44.72-38.94,63.78-53.01l51.47,76.72c-17.65,12.53-38.32,24.39-61.98,34.65l-0.01-0.01
		C441.92,536.35,457.21,608.45,460.91,636.23L460.91,636.23z"/>
	<path class="st4" d="M290.65,458.67c14.18-14.65,33.19-24.64,58.99-26.67c6.3-0.49,12.26,0.21,17.91,1.91
		c-3.61,10.39-22.17,24.31-42.76,31.8c-21.54,7.83-37.13,5.66-34.83-4.86C290.12,460.14,290.35,459.41,290.65,458.67L290.65,458.67z
		"/>
	<path class="st6" d="M300.33,450.02c12.86-9.87,28.98-16.42,49.31-18.02c3.19-0.25,6.29-0.2,9.31,0.14
		c-3.61,7.85-17.3,17.85-32.41,23.34c-16.55,6.02-28.53,4.35-26.76-3.73C299.9,451.19,300.09,450.61,300.33,450.02L300.33,450.02z"
		/>
	<path class="st4" d="M416.21,392.86c5.33-4.2,10.51-8.15,15.54-11.85l51.47,76.72c-5.11,3.63-10.47,7.2-16.09,10.7L416.21,392.86
		L416.21,392.86z"/>
	<path class="st7" d="M219.67,762.42c0,0-32.89,23.49-18.09,34c14.8,10.5,59.11-2.15,68.47-10.42
		C269.18,763.83,234.59,758.21,219.67,762.42L219.67,762.42z"/>
	<path class="st8" d="M198.9,784.57c-1.91,4.46-1.72,8.72,2.67,11.85c14.8,10.5,59.11-2.15,68.47-10.42
		c-0.08-2.15-0.49-4.14-1.16-5.98c-12.39,8.19-52.58,18.88-66.54,8.97C200.52,787.69,199.43,786.19,198.9,784.57L198.9,784.57z"/>
	<path class="st9" d="M440.81,297.61c11.97,0,21.67,9.34,21.67,20.87c0,11.53-9.7,20.87-21.67,20.87
		c-11.97,0-21.67-9.34-21.67-20.87C419.13,306.95,428.84,297.61,440.81,297.61L440.81,297.61z"/>
	<path class="st10" d="M432.1,307.88c-2.33,1.53-4.09,3.6-5.24,5.92c3.87-0.52,7.86,1.12,10.12,4.56c3.16,4.81,1.77,11.3-3.1,14.51
		c-0.23,0.15-0.46,0.29-0.69,0.42c4.61,2.38,10.38,2.25,15.07-0.84c6.88-4.53,8.84-13.7,4.38-20.48S438.99,303.36,432.1,307.88
		L432.1,307.88z"/>
	<path class="st11" d="M432.1,307.88c-2.33,1.53-4.09,3.6-5.24,5.92c3.87-0.52,7.86,1.12,10.12,4.56c3.16,4.81,1.77,11.3-3.1,14.51
		c-0.19,0.12-0.38,0.24-0.57,0.35c3.57,0.41,7.32-0.39,10.58-2.54c7.31-4.81,9.39-14.55,4.65-21.76c-0.46-0.7-0.97-1.35-1.52-1.95
		C442.44,304.67,436.75,304.83,432.1,307.88L432.1,307.88z"/>
	<path class="st12" d="M432.1,307.88c-2.33,1.53-4.09,3.6-5.24,5.92c3.87-0.52,7.86,1.12,10.12,4.56c1.64,2.5,2.06,5.46,1.39,8.17
		c4.01-5.18,4.53-12.47,0.78-18.17c-0.63-0.95-1.34-1.81-2.13-2.58C435.32,306.17,433.66,306.86,432.1,307.88L432.1,307.88z"/>
	<path class="st2" d="M153.45,269.52c8.03-69.83,124.41-89.9,172.57-78.66c48.16,11.24,96.32,42.54,109.16,129.23
		c12.84,86.69-89.9,139.66-159.73,128.43c-8.8-1.42-16.83-3.56-24.15-6.22C189.41,419.78,146.23,332.37,153.45,269.52L153.45,269.52
		z"/>
	<path class="st2" d="M182.35,377.88c15.52,0,28.09,12.4,28.09,27.69c0,15.29-12.58,27.69-28.09,27.69
		c-15.52,0-28.09-12.4-28.09-27.69C154.26,390.27,166.83,377.88,182.35,377.88L182.35,377.88z"/>
	<path class="st13" d="M340.73,313.19c0.14,0.6-0.13,1.52-0.6,2.06c-0.47,0.54-0.96,0.49-1.1-0.11c-0.01-0.06-4.61-19.76,12-22.04
		c16.25-2.23,1.5,28.52,1.46,28.61c-0.36,0.75-0.92,1.13-1.25,0.84c-0.34-0.29-0.32-1.13,0.04-1.88
		c0.04-0.08,12.72-26.53-0.88-24.66C337.14,297.83,340.72,313.15,340.73,313.19L340.73,313.19z"/>
	<path class="st14" d="M337.01,202.52c18.3-13.38,49.25-2.19,69.11,24.99c19.87,27.18,21.13,60.06,2.83,73.44
		c-18.3,13.38-49.25,2.19-69.11-24.99c-0.99-1.35-1.92-2.71-2.82-4.08l-5.38,2.29c2.05,6.52,3.16,13.47,3.16,20.67
		c0,37.97-30.78,68.76-68.76,68.76c-37.97,0-68.76-30.78-68.76-68.76c0-37.97,30.78-68.76,68.76-68.76
		c27.25,0,50.8,15.85,61.92,38.84l4.07-1.73C320.05,239.18,321.51,213.86,337.01,202.52L337.01,202.52z M266.05,233.88
		c33.67,0,60.96,27.29,60.96,60.96c0,33.67-27.29,60.96-60.96,60.96c-33.67,0-60.96-27.29-60.96-60.96
		C205.09,261.18,232.38,233.88,266.05,233.88L266.05,233.88z M342.4,209.89c15.56-11.38,41.87-1.86,58.76,21.25
		c16.89,23.11,17.97,51.07,2.41,62.44c-15.56,11.38-41.87,1.86-58.76-21.25C327.91,249.22,326.84,221.27,342.4,209.89L342.4,209.89z
		"/>
	<path class="st15" d="M240.52,284.35c4.98-18.16,23.73-28.85,41.9-23.87c18.16,4.98,28.85,23.73,23.87,41.9
		c-4.98,18.16-23.73,28.85-41.9,23.87C246.23,321.27,235.55,302.51,240.52,284.35L240.52,284.35z"/>
	<path class="st16" d="M267.7,282.92c2.79-10.17,13.29-16.15,23.46-13.37c10.17,2.79,16.15,13.29,13.37,23.46
		c-2.79,10.17-13.29,16.15-23.46,13.37C270.9,303.59,264.91,293.09,267.7,282.92L267.7,282.92z"/>
	<path class="st15" d="M263.2,288.07c1.26-4.61,6.03-7.33,10.64-6.06c4.61,1.26,7.33,6.03,6.06,10.64
		c-1.26,4.61-6.03,7.33-10.64,6.06C264.65,297.45,261.94,292.68,263.2,288.07L263.2,288.07z"/>
	<path class="st15" d="M346.07,260.62c-5.93-17.42-1.1-32.1,10.78-32.8c11.88-0.69,26.32,12.87,32.24,30.29
		c5.93,17.42,1.1,32.1-10.78,32.8C366.43,291.6,352,278.04,346.07,260.62L346.07,260.62z"/>
	<path class="st16" d="M357.93,258.79c-2.54-10.04,1.65-18.63,9.36-19.18c7.71-0.55,16.03,7.14,18.57,17.19
		c2.54,10.04-1.65,18.63-9.36,19.18C368.79,276.53,360.48,268.84,357.93,258.79L357.93,258.79z"/>
	<path class="st15" d="M353.87,257.64c-1.15-4.55,0.75-8.45,4.25-8.7c3.5-0.25,7.27,3.24,8.42,7.79c1.15,4.55-0.75,8.45-4.25,8.7
		C358.79,265.68,355.02,262.19,353.87,257.64L353.87,257.64z"/>
	<path class="st13" d="M195.31,339.12c53,88.9,199.39,3.24,220.57-33.05c1.05-0.27-11.7,20.72-14.07,34.21
		c-1.98,17.5,6.78,61.62-32.98,80.41C255.79,470.21,195.14,399.24,195.31,339.12L195.31,339.12z"/>
	<path class="st17" d="M291.41,437.17c-37.02-1.86-63.73-20.01-79.46-43.68c8.85-7.03,20.98-11.36,34.38-11.36
		c27.06,0,49,17.7,49,39.53C295.33,427.17,293.93,432.41,291.41,437.17L291.41,437.17z"/>
	<path class="st15" d="M199.52,345.5c41.4,60.99,141.16,23.26,189.79-13.08c2.66,13.44,4.44,35.56,1.24,37.72
		c-46.64,31.36-171.79,58.75-191.1-22.66C199.3,346.83,199.48,346.16,199.52,345.5L199.52,345.5z"/>
	<path class="st13" d="M183.88,350.1c-0.26,0.8-0.8,1.39-1.22,1.31c-0.42-0.08-0.55-0.79-0.3-1.6c0.43-1.35,1.05-2.69,1.84-3.96
		c1.88-3,4.77-5.63,8.39-7.07c3.5-1.39,7.73-1.72,12.45-0.22c2.03,0.64,4.14,1.62,6.32,2.98c0.36,0.23,0.39,1.04,0.06,1.81
		c-0.33,0.77-0.89,1.21-1.25,0.99c-2.13-1.33-4.19-2.28-6.15-2.9c-4.51-1.43-8.52-1.13-11.8,0.18c-3.16,1.26-5.59,3.42-7.11,5.85
		C184.58,348.32,184.17,349.21,183.88,350.1L183.88,350.1z"/>
	<path class="st10" d="M182.35,388.66c3.21,0,6.2,0.87,8.77,2.38c-4.05,1.94-6.84,6.04-6.84,10.78c0,6.62,5.44,11.98,12.15,11.98
		c0.31,0,0.62-0.01,0.93-0.03c-2.93,5.2-8.55,8.72-15.01,8.72c-9.47,0-17.15-7.57-17.15-16.91
		C165.2,396.23,172.88,388.66,182.35,388.66L182.35,388.66z"/>
	<path class="st11" d="M182.35,388.66c3.21,0,6.2,0.87,8.77,2.38c-4.05,1.94-6.84,6.04-6.84,10.78c0,6.62,5.44,11.98,12.15,11.98
		c0.26,0,0.51-0.01,0.77-0.02c-3.18,2.65-7.28,4.25-11.77,4.25c-10.06,0-18.22-8.04-18.22-17.96c0-0.97,0.08-1.91,0.23-2.84
		C170.39,392.11,175.96,388.66,182.35,388.66L182.35,388.66z"/>
	<path class="st12" d="M182.35,388.66c3.21,0,6.2,0.87,8.77,2.38c-4.05,1.94-6.84,6.04-6.84,10.78c0,3.44,1.47,6.54,3.83,8.73
		c-7.12-2.44-12.23-9.12-12.23-16.97c0-1.31,0.14-2.59,0.41-3.82C178.17,389.05,180.21,388.66,182.35,388.66L182.35,388.66z"/>
	<path class="st13" d="M204.47,400.42c-3.26-1.63-26.11-36.31-31.82-59.56c-5.71-23.25,7,1.68,8.63-27.69
		c1.63-29.37-29.5-60.66,41.95-93.06c47.39-17.3,75.47-8.97,75.47-8.97c9.08-4.74,16.29-11.35,19.74-21.72l19.98,4.79
		c8.58-8.07,8.54-19.84,6.85-32.31c-2.04,4.78-4.85,8.67-9.6,10.31c0.1-11.83-2.48-23.51-10.67-34.85
		c-1.41,8.67-4.52,15.63-10.31,19.92c-28.37-21.42-59.38-33.4-91.75-40.54c5.82,15.17,9.57,30.35,8.53,45.52
		c-18.26-1.11-35.38,3.07-51.92,9.96c3.6,1.53,7.73,3.85,8.44,6.7c-18.33,3.84-37.58,14.9-47.91,26.73
		c-3.48,2.08,15.29,11.02,15.29,11.02l-29.16,21.69l9.25,4.27c-14.26,33.9-12.1,43.28,5.23,71.7c0,0-5.79,8.11-5.33,11.13
		c0.46,3.01,32.74,56.25,32.74,56.25l29.01,20.09L204.47,400.42L204.47,400.42z"/>
	<path class="st18" d="M237.2,264.99c0,0,1.65-19.78,17.81-26.99c16.15-7.21,19.1,11.2,10.74,16.74
		C257.38,260.27,237.2,264.99,237.2,264.99L237.2,264.99z"/>
	<path class="st18" d="M343.29,231.95c0,0-3.52-11.55,3.99-19.26c7.5-7.71,13.31,2.03,9.83,7.04
		C353.63,224.74,343.29,231.95,343.29,231.95L343.29,231.95z"/>
	<path class="st8" d="M474.02,763.18c0,0,32.19,23.49,17.71,34c-14.48,10.5-57.85-2.15-67.02-10.42
		C425.56,764.59,459.41,758.96,474.02,763.18L474.02,763.18z"/>
	<path class="st7" d="M474.02,763.18c0,0,15.13,11.04,19.98,21.37c-0.57,0.79-1.32,1.54-2.27,2.23c-13.5,9.79-52.1-0.54-64.7-8.69
		C435.02,763.16,461.54,759.58,474.02,763.18L474.02,763.18z"/>
	<path class="st19" d="M558.76,351.85c0,0-10.15,8.38-15.76,0.67c-5.62-7.71,7.08-15.36,11.23-15.76c4.15-0.39,7.63-1.65,9.87,4.58
		C566.34,347.57,558.76,351.85,558.76,351.85L558.76,351.85z"/>
	<path class="st19" d="M561.96,367.35c0,0-11.44,6.5-15.64-2.06c-4.2-8.56,9.63-13.91,13.78-13.58c4.15,0.33,7.8-0.3,8.93,6.21
		C570.16,364.45,561.96,367.35,561.96,367.35L561.96,367.35z"/>
	<path class="st19" d="M561.23,378.41c0,0-8.31,4.72-11.37-1.5s6.99-10.11,10.01-9.87c3.02,0.24,5.67-0.22,6.49,4.52
		C567.19,376.29,561.23,378.41,561.23,378.41L561.23,378.41z"/>
	<path class="st20" d="M129.78,499.68c-8.26,8.1-9.43,21.87-5.23,32.42c5.22,13.09,15.37,20.45,23.83,24.31"/>
	<path class="st15" d="M295.57,290.41c0.67-2.45,3.21-3.9,5.66-3.23c2.45,0.67,3.9,3.21,3.23,5.66c-0.67,2.45-3.21,3.9-5.66,3.23
		C296.34,295.4,294.9,292.86,295.57,290.41L295.57,290.41z"/>
	<path class="st15" d="M378.95,264.3c0.54-1.96,2.56-3.12,4.53-2.58c1.96,0.54,3.12,2.56,2.58,4.53c-0.54,1.96-2.56,3.12-4.53,2.58
		C379.57,268.29,378.41,266.26,378.95,264.3L378.95,264.3z"/>
	<path class="st21" d="M629.85,112.41c29.42,0,53.27,23.85,53.27,53.27c0,47.89-34.3,29.72-34.3,68.23h-37.94
		c0-38.5-34.3-20.33-34.3-68.23C576.58,136.27,600.43,112.41,629.85,112.41L629.85,112.41z M692.4,210.27
		c6.28,2.47,15.31,6.22,22.23,10.01c16.87,9.24,17,26.65-5.33,11.72c-6.89-4.61-15.43-11.05-20.92-15.93
		C676.81,205.79,682.11,206.23,692.4,210.27L692.4,210.27z M569.78,205.7c-6.05,2.98-14.74,7.48-21.32,11.83
		c-16.04,10.61-14.72,27.98,6.29,11.24c6.48-5.17,14.46-12.29,19.52-17.61C584.94,199.93,579.7,200.82,569.78,205.7L569.78,205.7z
		 M634.74,90.9c1.37-6.61,3.16-16.22,3.77-24.08c1.48-19.18-13.02-28.81-12.73-1.95c0.09,8.29,0.81,18.96,1.9,26.22
		C629.97,106.41,632.49,101.73,634.74,90.9L634.74,90.9z M680.31,114.46c6.28-2.47,15.31-6.22,22.23-10.01
		c16.87-9.24,17-26.65-5.33-11.72c-6.89,4.61-15.43,11.05-20.92,15.93C664.72,118.94,670.02,118.5,680.31,114.46L680.31,114.46z
		 M704.25,171.31c6.69,0.85,16.42,1.89,24.31,1.88c19.23-0.01,27.7-15.23,0.95-12.84c-8.26,0.74-18.84,2.29-26,3.94
		C688.42,167.76,693.28,169.92,704.25,171.31L704.25,171.31z M575.78,113.14c-6.05-2.98-14.74-7.48-21.32-11.83
		c-16.04-10.61-14.72-27.98,6.29-11.24c6.49,5.17,14.46,12.29,19.52,17.61C590.94,118.91,585.7,118.03,575.78,113.14L575.78,113.14z
		 M556.27,163.26c-6.72,0.6-16.48,1.27-24.36,0.97c-19.22-0.73-27.12-16.25-0.47-12.87c8.23,1.04,18.74,2.99,25.83,4.9
		C572.22,160.31,567.28,162.28,556.27,163.26L556.27,163.26z M645.46,266.15c-0.42,6.04-7.5,10.86-16.18,10.86
		c-7.24,0-13.36-3.34-15.44-7.96L645.46,266.15L645.46,266.15z M614.02,258.94l30.96-2.84c2-0.18,3.64,1.32,3.64,3.33l0,0
		c0,2.02-1.64,3.82-3.64,4l-30.96,2.84c-2,0.18-3.63-1.32-3.63-3.33v0C610.39,260.93,612.02,259.13,614.02,258.94L614.02,258.94z
		 M614.02,248.84l30.96-2.84c2-0.18,3.64,1.32,3.64,3.33l0,0c0,2.02-1.64,3.82-3.64,4l-30.96,2.84c-2,0.18-3.63-1.32-3.63-3.33v0
		C610.39,250.82,612.02,249.02,614.02,248.84L614.02,248.84z M614.02,238.25l30.96-2.84c2-0.18,3.64,1.32,3.64,3.33l0,0
		c0,2.02-1.64,3.82-3.64,4l-30.96,2.84c-2,0.18-3.63-1.32-3.63-3.33v0C610.39,240.23,612.02,238.43,614.02,238.25L614.02,238.25z"/>
</g>
</svg>
